<svg xmlns="http://www.w3.org/2000/svg" 
xmlns:xlink="http://www.w3.org/1999/xlink" version="1.1" 
preserveAspectRatio="xMidYMid meet" viewBox="450 280 900 70" 
width="1000" height="55" style="&#10;    width: 1000px;&#10;    height: 55px;&#10;"><defs><path d="M58.69 93.36L58.69 133.5L68.91 150.29C66.47 170.73 64.28 186.3 62.34 197.01C60.39 207.71 62.58 214.53 68.91 217.45L62.34 237.15L76.2 237.15L62.34 298.47L76.2 322.55L62.34 343.72L74.01 384.6L82.04 432.04L62.34 444.45L62.34 471.46L101.02 476.57L109.05 463.43L171.09 476.57L189.34 461.24L241.17 461.24L317.08 468.54L337.52 459.05L387.15 459.05L438.98 459.05L486.42 468.54L536.06 468.54L540.44 432.04L536.06 391.9L547.74 353.94L536.06 318.18L536.06 259.05L543.36 206.5L543.36 153.94L536.06 133.5L547.74 97.01L510.51 98.47L470.36 81.68L438.98 101.39L405.4 86.06L350.66 88.25L286.42 88.25L245.55 93.36L216.35 80.22L162.34 86.06L109.05 91.17L101.02 83.87L89.34 80.22L58.69 86.06L58.69 93.36Z" id="e3DIpEVp0m"/></defs><g xmlns="http://www.w3.org/2000/svg" class="page-list showable-children">
    <g class="page showed" custom-element="page-svg">
    <g class="content" transform="matrix(1.23164 0 0 1.23164 265.4 62.55)">
        <!--<g custom-element="layer-walls-svg" active class="layer" data-layer-color="#007fff" data-layer-name="default layer">-->
        <!--</g>-->
    <g transform="matrix(1,0,0,1,0,0)" data-layer-name="untitled layer" data-layer-color="#ff7f00" class="layer" custom-element="layer-svg" active=""><path d="M 41.56636047363281 209.58644104003906 L 89.16230773925781 197.2525177001953 L 140.54908752441406 204.5510711669922 L 211.73239135742188 196.3284454345703 L 249.21946716308594 214.6531524658203 L 340.1993103027344 199.0262451171875 L 350.2069396972656 212.05714416503906 L 372.9519348144531 193.14511108398438 L 426.86590576171875 207.3976593017578 L 517.424560546875 204.51974487304688 L 535.1151123046875 189.30789184570312 L 570.074951171875 192.97283935546875 L 594.08349609375 206.41094970703125 L 692.1954956054688 189.5545654296875 L 717.0302734375 207.06483459472656 L 759.992919921875 183.21923828125 L 815.2920532226562 193.7755126953125 L 865.4152221679688 187.60462951660156 L 900.7963256835938 183.0821990966797 L 939.5469970703125 196.92752075195312 L 1000.2001953125 188.27810668945312 L 1044.426513671875 191.3870391845703 L 1046.4920654296875 206.34437561035156 L 1005.2424926757812 202.2330780029297 L 947.4080810546875 208.34130859375 L 903.4976806640625 195.56491088867188 L 826.1015625 204.52366638183594 L 766.91845703125 195.3495635986328 L 722.2669067382812 217.7464141845703 L 688.2344970703125 202.94178771972656 L 595.1000366210938 216.75970458984375 L 564.056640625 203.603515625 L 543.1786499023438 202.32704162597656 L 517.2382202148438 214.9115753173828 L 426.48114013671875 217.97743225097656 L 378.6381530761719 206.69677734375 L 354.823974609375 222.5742645263672 L 330.58453369140625 214.28900146484375 L 248.08546447753906 225.2838134765625 L 210.23793029785156 213.76040649414062 L 148.15098571777344 216.57566833496094 L 93.71858978271484 208.74459838867188 L 42.262962341308594 220.53036499023438 L 41.56636047363281 209.58644104003906 Z " stroke-width="0" stroke="#000000" fill="#8E4CE3dd" class="" stroke-opacity="1" fill-opacity="1" stroke-linecap="butt" stroke-linejoin="miter" transform="matrix(1 0 0 1 -34.7524 5.68434e-14)"/></g></g>
</g></g>
</svg>
