<svg xmlns="http://www.w3.org/2000/svg" 
xmlns:xlink="http://www.w3.org/1999/xlink" version="1.1" 
preserveAspectRatio="xMidYMid meet" viewBox="490 500 60 5" 
width="50" height="700" style="&#10;    /* width: 54px; */&#10;    /* height: 860px; */&#10;"><defs><path d="M58.69 93.36L58.69 133.5L68.91 150.29C66.47 170.73 64.28 186.3 62.34 197.01C60.39 207.71 62.58 214.53 68.91 217.45L62.34 237.15L76.2 237.15L62.34 298.47L76.2 322.55L62.34 343.72L74.01 384.6L82.04 432.04L62.34 444.45L62.34 471.46L101.02 476.57L109.05 463.43L171.09 476.57L189.34 461.24L241.17 461.24L317.08 468.54L337.52 459.05L387.15 459.05L438.98 459.05L486.42 468.54L536.06 468.54L540.44 432.04L536.06 391.9L547.74 353.94L536.06 318.18L536.06 259.05L543.36 206.5L543.36 153.94L536.06 133.5L547.74 97.01L510.51 98.47L470.36 81.68L438.98 101.39L405.4 86.06L350.66 88.25L286.42 88.25L245.55 93.36L216.35 80.22L162.34 86.06L109.05 91.17L101.02 83.87L89.34 80.22L58.69 86.06L58.69 93.36Z" id="e3DIpEVp0m"/></defs><g xmlns="http://www.w3.org/2000/svg" class="page-list showable-children">
    <g class="page showed" custom-element="page-svg">
    <g class="content" transform="matrix(1.13845 0 0 1.13845 495.713 53.3922)">
        <!--<g custom-element="layer-walls-svg" active class="layer" data-layer-color="#007fff" data-layer-name="default layer">-->
        <!--</g>-->
    <g transform="matrix(1,0,0,1,0,0)" data-layer-name="untitled layer" data-layer-color="#ff7f00" class="layer" custom-element="layer-svg" active=""><path d="M 31.259796142578125 209.58644104003906 L 67.05411529541016 197.2525177001953 L 105.69931030273438 204.5510711669922 L 159.23239135742188 196.3284454345703 L 187.42437744140625 214.6531524658203 L 255.84536743164062 199.0262451171875 L 263.3715515136719 212.05714416503906 L 280.4768371582031 193.14511108398438 L 321.0225830078125 207.3976593017578 L 389.1268310546875 204.51974487304688 L 402.430908203125 189.30789184570312 L 428.7223205566406 192.97283935546875 L 446.77783203125 206.41094970703125 L 520.5625 189.5545654296875 L 539.2393798828125 207.06483459472656 L 571.5492553710938 183.21923828125 L 613.13671875 193.7755126953125 L 650.8316650390625 187.60462951660156 L 677.4398193359375 183.0821990966797 L 706.5820922851562 196.92752075195312 L 752.196044921875 188.27810668945312 L 785.456298828125 191.3870391845703 L 787.0096435546875 206.34437561035156 L 755.9880981445312 202.2330780029297 L 712.4940185546875 208.34130859375 L 679.4713745117188 195.56491088867188 L 621.2659912109375 204.52366638183594 L 576.757568359375 195.3495635986328 L 543.1776123046875 217.7464141845703 L 517.5836791992188 202.94178771972656 L 447.5423278808594 216.75970458984375 L 424.1962585449219 203.603515625 L 408.49505615234375 202.32704162597656 L 388.9866943359375 214.9115753173828 L 320.73321533203125 217.97743225097656 L 284.75311279296875 206.69677734375 L 266.8437805175781 222.5742645263672 L 248.61460876464844 214.28900146484375 L 186.57156372070312 225.2838134765625 L 158.10848999023438 213.76040649414062 L 111.4162826538086 216.57566833496094 L 70.48064422607422 208.74459838867188 L 31.783672332763672 220.53036499023438 L 31.259796142578125 209.58644104003906 Z " stroke-width="0" stroke="#000000" fill="#8E4CE3" class="" stroke-opacity="1" fill-opacity="1" stroke-linecap="butt" stroke-linejoin="miter" transform="matrix(-0.0109017 0.999941 -0.999941 -0.0109017 228.734 -21.7234)"/></g></g>
</g></g>
</svg>